PathFileType	4	(X/Y/Z)	OpenSim_Sub07_EMGBaseline_Gyro.trc
DataRate	CameraRate	NumFrames	NumMarkers	Units	OrigDataRate	OrigDataStartFrame	OrigNumFrames
100	100	37	8	m	100	5975	6828
Frame#	Time	torso_imu_offset_imu	pelvis_imu_offset_imu	tibia_r_imu_offset_imu	femur_r_imu_offset_imu	tibia_l_imu_offset_imu	femur_l_imu_offset_imu	toes_r_imu_offset_imu	toes_l_imu_offset_imu
				X1	Y1	Z1	X2	Y2	Z2	X3	Y3	Z3	X4	Y4	Z4	X5	Y5	Z5	X6	Y6	Z6	X7	Y7	Z7	X8		Y8	Z8	

5975	59.74000000	-0.08316600	-0.14416400	-0.06016200	0.10715500	-0.25824600	0.20231100	0.39991400	-0.50870500	-0.75776600	0.39643600	-0.60621300	0.37753700	0.47498500	0.35706600	1.97248700	-0.11445600	0.21058800	-0.32050000	-0.28325400	-2.86082700	0.24292100	0.21874000	-1.87258000	0.24133600
5976	59.75000000	-0.07223000	-0.14495000	-0.08442400	0.11855400	-0.26943900	0.15523600	1.97420200	-0.21500000	-0.94087900	0.85389200	-0.69018100	0.33725000	0.68366500	0.29661900	2.07827800	0.02722900	0.30554100	-0.46427200	-0.15005000	-2.46729300	0.19246700	0.17046700	-2.22930100	0.27081700
5977	59.76000000	-0.06061800	-0.14824200	-0.08566900	0.11449900	-0.23050900	0.10955100	2.04537800	-0.37115800	-1.18865900	1.44088900	-0.67834000	0.04132400	0.73151000	0.22597700	2.18741300	0.16309500	0.43913600	-0.58377500	0.07236200	-1.86833900	0.08963600	0.23783900	-2.68497200	0.38351000
5978	59.77000000	-0.07344400	-0.14329900	-0.07646500	0.08932900	-0.19921100	0.09522200	1.77391100	-0.47802600	-1.35723500	1.76274300	-0.63878800	-0.26232400	0.85209600	0.19411400	2.32309700	0.23825400	0.58288400	-0.69062600	0.35755500	-1.78246000	0.07325000	0.14882300	-3.20651600	0.35284900
5979	59.78000000	-0.09923400	-0.12240400	-0.07026400	0.10397200	-0.20936200	0.11678000	2.08753200	-0.42475800	-1.51292500	1.19709400	-0.26563300	-0.27524600	0.92699400	0.24791900	2.42401900	0.20144100	0.73708500	-0.79583200	1.59315100	-1.34933400	-0.02325000	-0.12915400	-3.83167300	0.26757700
5980	59.79000000	-0.12423600	-0.10148800	-0.06150500	0.16808300	-0.19380100	0.11322900	2.16033300	-0.51631000	-1.51889000	0.46506300	0.18295800	-0.03098800	0.99299800	0.34963300	2.50910900	0.10630000	0.92363300	-0.91509700	0.52867800	-0.49094900	-0.01681700	-0.10708100	-4.61221000	0.22814400
5981	59.80000000	-0.14473800	-0.08687800	-0.05609100	0.24216200	-0.17103300	0.09576500	1.97135400	-0.55568400	-1.37325600	0.22971900	-0.03565800	0.13382600	0.99968600	0.42451000	2.61644800	-0.02247100	1.17715300	-1.06524500	0.37426400	-0.63582600	-0.07181100	0.09234900	-5.24046000	0.42776300
5982	59.81000000	-0.16615600	-0.09120400	-0.04494400	0.36578800	-0.12131900	0.10602600	1.38077300	-0.81952300	-1.03406100	0.48515500	-0.18459200	-0.04782800	0.91977600	0.43931900	2.76469200	0.02767800	1.34429900	-1.20481700	0.11818800	-0.32617300	-0.05813200	0.08075800	-5.84846600	0.76879600
5983	59.82000000	-0.19554800	-0.09493300	-0.03567100	0.48420200	-0.06338000	0.12931000	0.73886000	-1.00899800	-0.79397900	0.72930400	0.20340100	-0.56417000	0.89460600	0.41212400	2.88822500	0.24035100	1.38596900	-1.38764500	0.06819800	-0.12245000	-0.08183700	0.39137400	-6.26647800	0.94524500
5984	59.83000000	-0.24877200	-0.09253100	-0.01400400	0.58882800	-0.02170300	0.15336100	-0.11941300	-1.03298300	-0.82030900	0.19269300	0.26577100	-0.96346700	0.86858900	0.37892900	2.88660000	0.22980300	1.44239400	-1.55233200	0.07608500	-0.08087500	-0.15285500	0.86470600	-6.87251400	1.07231300
5985	59.84000000	-0.31422400	-0.09302000	0.00691500	0.63707900	-0.01018800	0.18873800	-0.90736100	-1.22972000	-0.87325400	-0.21294800	-0.05611900	-1.09469300	0.87351500	0.37247100	2.82776200	0.07015500	1.50618100	-1.67743100	0.10482900	-0.10008000	-0.20023800	1.37071400	-7.17885500	0.98390700
5986	59.85000000	-0.37452700	-0.07930800	0.02096400	0.62240300	0.00204600	0.22431100	-1.24914500	-1.26532300	-0.77285100	0.04447000	-0.05375900	-1.18657500	0.76531800	0.41655200	2.85111900	0.07489300	1.58113400	-1.78607200	0.10036100	-0.03925000	-0.21524500	2.57167000	-6.69710000	0.78864800
5987	59.86000000	-0.43318700	-0.06543800	0.03146800	0.59671100	0.01794700	0.25575800	-1.56314700	-1.17228700	-0.56961100	0.37203800	0.12456100	-1.20917800	0.92376100	0.42115300	3.02150300	0.21852000	1.64279900	-1.87305700	0.06872800	-0.06871700	-0.18750100	1.89555400	-5.76457800	0.92178900
5988	59.87000000	-0.48287100	-0.04289200	0.04425700	0.54720000	0.00862900	0.26402400	-1.43200400	-0.99468400	-0.32341800	0.38326100	0.12711200	-1.10429900	1.64929900	0.43584400	3.13419200	0.43334800	1.64397300	-1.96781200	0.05013800	-0.06456500	-0.14965700	0.46067200	-5.29335000	1.07928000
5989	59.88000000	-0.52228100	-0.01448200	0.04881100	0.48773800	0.00750100	0.24781200	-1.00682900	-0.81477900	-0.36065500	0.44685400	0.08893900	-1.00314600	2.48039000	0.41425400	3.04345800	0.76503800	1.55561200	-2.04553800	0.04917400	-0.04567100	-0.14578600	0.87001200	-5.06855100	1.11631700
5990	59.89000000	-0.54011000	0.01765500	0.06329400	0.42526800	0.00379400	0.21356100	-0.56106100	-0.76167200	-0.58419000	0.66538700	0.07724400	-1.01896800	3.16194500	0.34167800	2.80152100	1.12878700	1.43091700	-2.07691700	0.02526000	-0.08758300	-0.16254500	0.92647300	-4.53869700	1.40283000
5991	59.90000000	-0.54537000	0.05340400	0.07677400	0.37311800	0.02014500	0.15548800	-0.15059800	-0.63063500	-0.62383400	0.79539000	0.05125600	-1.03227500	3.56983400	0.27687300	2.40965000	1.40173300	1.30698800	-2.03378600	0.02601800	-0.06801600	-0.18388400	1.61415800	-4.44256400	1.79305400
5992	59.91000000	-0.53768100	0.07795300	0.09007300	0.34532400	0.03857700	0.08373500	0.20151100	-0.51611400	-0.61957700	0.76562500	0.02751500	-1.00179900	3.51813000	0.26226100	1.90975800	1.53120500	1.18944600	-1.92486400	0.02756700	-0.05522800	-0.19185200	1.15608000	-4.36415700	2.41481000
5993	59.92000000	-0.52146900	0.09560100	0.08927800	0.32959900	0.04615900	0.01251200	0.51329800	-0.36428500	-0.57972200	0.79000700	0.03032800	-0.96917400	3.21588500	0.28701100	1.40284700	1.49098900	1.06148200	-1.82467300	0.03227400	-0.02756400	-0.17709000	-0.05356000	-5.49936900	3.07134800
5994	59.93000000	-0.51586400	0.09993400	0.08378900	0.30127200	0.05678400	-0.05608800	0.91583300	-0.19553500	-0.53723800	0.82813400	0.03806300	-0.98985600	2.80041000	0.24469400	0.94958900	1.33785700	0.93732700	-1.77853700	0.02949600	-0.04628200	-0.15605800	2.88163200	-1.29503600	2.00566600
5995	59.94000000	-0.51356900	0.10083700	0.07356000	0.29150900	0.06634800	-0.10284000	1.08599800	-0.16493000	-0.43830800	0.75432800	0.04185600	-0.99620400	2.51818500	0.21939500	0.62693800	1.14857000	0.81929400	-1.74925800	0.02591500	-0.01235500	-0.12870000	3.01030900	3.71416800	1.58431600
5996	59.95000000	-0.50608400	0.10882600	0.05949600	0.29296300	0.05866100	-0.16012900	0.91041800	-0.18286000	-0.39693100	0.62511800	0.04564300	-0.99418700	2.13836000	0.04049500	0.47209800	0.99160200	0.73294000	-1.72073400	0.00614900	-0.00957400	-0.11430200	2.11237900	2.92689300	1.78690200
5997	59.96000000	-0.49093200	0.11872700	0.05227400	0.29417300	0.04418900	-0.22190800	0.44297200	-0.29346400	-0.39882000	0.49425000	0.04012200	-0.99396500	1.53656600	-0.42928300	0.28479600	0.91978800	0.71957200	-1.65149000	0.01231800	-0.02322800	-0.12214400	-0.06471100	3.32812700	1.83243900
5998	59.97000000	-0.46189300	0.12924400	0.04225400	0.29471400	0.02746700	-0.28290100	-0.07020100	-0.41701500	-0.37937700	0.33271100	0.02901300	-1.01390200	1.21807200	-0.84293500	-0.10041000	0.93574700	0.69123600	-1.61271100	0.02297400	-0.05143900	-0.12566200	0.05665300	2.94861100	1.74433200
5999	59.98000000	-0.44118100	0.13288900	0.02601900	0.29151700	0.02864800	-0.33502200	-0.39263700	-0.49457100	-0.35444100	0.14053100	0.03507600	-1.04727500	1.25480900	-0.98154600	-0.62879800	0.83272400	0.61712000	-1.65809200	0.01520100	-0.03819100	-0.11740700	-0.18374000	2.35380800	1.44524500
6000	59.99000000	-0.43595500	0.12390800	0.01289500	0.28590600	0.04061300	-0.36288900	-0.40912100	-0.47844800	-0.36190400	-0.05021400	0.05221600	-1.07156800	1.26428700	-0.93312100	-1.13566500	0.55516400	0.51563700	-1.69804500	0.00485500	-0.03524800	-0.10256600	-0.03653700	2.46334800	0.87043400
6001	60.00000000	-0.43259900	0.10590200	-0.00368900	0.26928500	0.05285900	-0.37317200	-0.29067200	-0.41994400	-0.34750400	-0.19674900	0.07211900	-1.06975700	1.02302700	-0.85186800	-1.47859900	0.19157300	0.41313200	-1.66791100	0.01263100	-0.04543400	-0.08999400	0.17336100	2.59019300	0.21719600
6002	60.01000000	-0.43691300	0.09296400	-0.02103900	0.23405000	0.06512800	-0.37869000	-0.09145700	-0.35194900	-0.29310800	-0.27728400	0.10274400	-1.05608900	0.52703100	-0.79594700	-1.70732600	-0.18712300	0.32799600	-1.56917500	0.01349700	-0.04604900	-0.07271500	0.10216200	3.00014600	-0.39644900
6003	60.02000000	-0.43869300	0.08527200	-0.02704100	0.19032600	0.07809100	-0.36224500	0.11035900	-0.26685600	-0.26403800	-0.32125800	0.15688800	-1.00847400	-0.06625300	-0.78629000	-1.91230800	-0.55103400	0.27046600	-1.43668500	-0.00116300	-0.03404900	-0.04942200	-0.15693600	3.31197200	-0.89177500
6004	60.03000000	-0.42728700	0.07680000	-0.01731900	0.13570500	0.08899000	-0.34751000	0.20634200	-0.21848300	-0.27557800	-0.33655100	0.20671300	-0.96450700	-0.63777900	-0.82204000	-2.13136600	-0.88286700	0.24688300	-1.35300200	-0.00595800	-0.04735100	-0.02745200	-0.49235500	3.54069100	-1.27048300
6005	60.04000000	-0.41790900	0.07793400	-0.00172300	0.09553100	0.09635900	-0.32774700	0.22128200	-0.19640700	-0.28485900	-0.33840200	0.23492200	-0.95242000	-1.20295400	-0.86427900	-2.36963400	-1.08143400	0.23167300	-1.23778700	-0.00045000	-0.04998200	-0.02287600	-0.62073700	3.70837400	-1.57707100
6006	60.05000000	-0.38471000	0.07368600	0.01306300	0.05557100	0.11283900	-0.31099700	0.14310200	-0.22306800	-0.24342600	-0.29936900	0.27014800	-0.94885100	-1.87165300	-0.86992100	-2.67197300	-1.17180100	0.20312700	-1.09128600	-0.00079900	-0.04702000	-0.03030400	-0.54316200	3.84923200	-1.82599800
6007	60.06000000	-0.35600300	0.07046600	0.01931700	0.03548100	0.13342100	-0.28619300	0.00402400	-0.24285400	-0.18995300	-0.23899100	0.29341900	-0.94962800	-2.79067000	-0.81154800	-3.04320300	-1.22398700	0.16517500	-0.97219400	-0.00534200	-0.05141600	-0.03458600	-0.32320800	3.94342500	-2.01080500
6008	60.07000000	-0.32061900	0.07191600	0.02654400	0.03372200	0.14978900	-0.26569200	-0.12810500	-0.27577900	-0.17254700	-0.16445200	0.30044900	-0.96964900	-4.10254200	-0.71193100	-3.37229000	-1.28602300	0.11562300	-0.88564400	-0.00197500	-0.04118200	-0.03556100	-0.11952200	3.93933400	-2.15673600
6009	60.08000000	-0.28389300	0.08105600	0.03258900	0.04980100	0.16649100	-0.24425700	-0.22876100	-0.29600100	-0.17453000	-0.07977500	0.31107300	-0.99478700	-5.23559300	-0.59469500	-3.59457100	-1.36006800	0.06152100	-0.74888100	-0.00711200	-0.04766000	-0.03660700	0.05531700	3.80331400	-2.31986700
6010	60.09000000	-0.24278500	0.08849800	0.04080300	0.06585000	0.18319800	-0.22281100	-0.24997700	-0.28654600	-0.16694300	0.00492700	0.31611700	-1.02296800	-5.15979600	-0.41538800	-3.73745800	-1.44072200	0.02323800	-0.61533600	-0.01200400	-0.04015500	-0.03663500	0.17574400	3.56192900	-2.53361800
6011	60.10000000	-0.20641800	0.10175800	0.04594800	0.07510100	0.20953300	-0.20604100	-0.21861700	-0.28076300	-0.16827000	0.08157000	0.31784500	-1.02792200	-4.00814500	-0.23139800	-3.92143400	-1.45047700	-0.02177400	-0.49977800	-0.01712400	-0.06277300	-0.02985500	0.15032100	3.49482700	-2.71590700
